<svg width="7" height="7" viewBox="0 0 7 7" fill="none" xmlns="http://www.w3.org/2000/svg">
<path d="M6.24895 6.66666C2.69411 6.6717 -0.00379901 3.94146 4.01559e-06 0.417712C4.01559e-06 0.187594 0.186552 0 0.416671 0H1.5164C1.72289 0 1.8983 0.151721 1.92863 0.35597C2.0013 0.845499 2.14382 1.32207 2.35187 1.77113L2.39469 1.86354C2.45422 1.99204 2.41387 2.14473 2.29862 2.22703C1.95804 2.47025 1.82788 2.95981 2.09321 3.34181C2.42616 3.82118 2.84585 4.24079 3.32511 4.57359C3.70709 4.83884 4.19658 4.7087 4.43979 4.36819C4.52215 4.25287 4.67492 4.2125 4.8035 4.27206L4.89549 4.31468C5.34458 4.52271 5.82119 4.66524 6.31076 4.7379C6.51502 4.76821 6.66667 4.94361 6.66667 5.15011V6.24999C6.66667 6.48011 6.47966 6.66666 6.24955 6.66666L6.24895 6.66666Z" fill="#E2E6EE"/>
</svg>
