<svg width="8" height="8" viewBox="0 0 8 8" fill="none" xmlns="http://www.w3.org/2000/svg">
<path d="M2.08337 7.10668C1.2408 7.10668 0.48119 6.59914 0.1587 5.82073C-0.16379 5.04232 0.0143376 4.1463 0.610033 3.55042L1.4942 2.66626L2.08337 3.25542L1.19962 4.13917C0.883808 4.45498 0.760471 4.91528 0.876065 5.34668C0.991659 5.77809 1.32862 6.11505 1.76002 6.23064C2.19143 6.34624 2.65173 6.2229 2.96753 5.90709L3.85128 5.02334L4.44045 5.61292L3.5567 6.49667C3.16673 6.88856 2.63622 7.10821 2.08337 7.10668ZM2.37795 5.31792L1.78878 4.72876L4.73503 1.78251L5.3242 2.37167L2.37837 5.31751L2.37795 5.31792ZM5.6192 4.43417L5.02962 3.84501L5.91337 2.96126C6.23348 2.64639 6.36012 2.18403 6.24513 1.75C6.13015 1.31596 5.79121 0.976944 5.3572 0.861859C4.9232 0.746774 4.4608 0.873306 4.14587 1.19334L3.2617 2.07709L2.67253 1.48792L3.5567 0.603757C4.37132 -0.203757 5.68544 -0.20088 6.49651 0.610194C7.30759 1.42127 7.31047 2.73539 6.50295 3.55001L5.6192 4.43376V4.43417Z" fill="#E2E6EE"/>
</svg>
