<svg width="6" height="8" viewBox="0 0 6 8" fill="none" xmlns="http://www.w3.org/2000/svg">
<path d="M2.91667 7.50155C2.39039 7.05264 1.90258 6.56051 1.45833 6.0303C0.791667 5.23405 3.68193e-07 4.04821 3.68193e-07 2.91821C-0.000590533 1.73802 0.710103 0.673793 1.80045 0.222129C2.89079 -0.229535 4.14586 0.020397 4.98 0.855297C5.52853 1.40138 5.8358 2.14421 5.83335 2.91821C5.83335 4.04821 5.04167 5.23405 4.375 6.0303C3.93076 6.56051 3.44295 7.05264 2.91667 7.50155ZM2.91667 1.66821C2.47009 1.66821 2.05743 1.90646 1.83414 2.29321C1.61084 2.67996 1.61084 3.15646 1.83414 3.54321C2.05743 3.92997 2.47009 4.16821 2.91667 4.16821C3.60702 4.16821 4.16667 3.60857 4.16667 2.91821C4.16667 2.22786 3.60702 1.66821 2.91667 1.66821Z" fill="#E2E6EE"/>
</svg>
